<svg width="17" height="16" viewBox="0 0 17 16" fill="none" xmlns="http://www.w3.org/2000/svg">
<path d="M15.8058 8.25919L8.60062 0.253384C8.2972 -0.0844612 7.71438 -0.0844612 7.41096 0.253384L0.205736 8.25919C0.102026 8.37415 0.0339514 8.51676 0.00978954 8.66969C-0.0143723 8.82262 0.00641965 8.97928 0.0696375 9.12061C0.19773 9.40962 0.484338 9.59536 0.800567 9.59536H2.40173V15.1994C2.40173 15.4117 2.48607 15.6154 2.63621 15.7655C2.78635 15.9157 2.98998 16 3.20231 16H5.60405C5.81638 16 6.02001 15.9157 6.17015 15.7655C6.32028 15.6154 6.40463 15.4117 6.40463 15.1994V11.9971H9.60695V15.1994C9.60695 15.4117 9.6913 15.6154 9.84144 15.7655C9.99157 15.9157 10.1952 16 10.4075 16H12.8093C13.0216 16 13.2252 15.9157 13.3754 15.7655C13.5255 15.6154 13.6099 15.4117 13.6099 15.1994V9.59536H15.211C15.3661 9.59602 15.5179 9.55155 15.6482 9.46738C15.7784 9.38321 15.8813 9.26297 15.9443 9.12133C16.0074 8.97968 16.0279 8.82275 16.0033 8.66966C15.9787 8.51658 15.9101 8.37396 15.8058 8.25919Z" fill="white"/>
</svg>
